<svg id="svg" xmlns="http://www.w3.org/2000/svg" xmlns:xlink="http://www.w3.org/1999/xlink" width="400" height="336.45990922844175" viewBox="0, 0, 400,336.45990922844175"><g id="svgg"><path id="path0" d="M187.595 15.172 C 82.445 21.365,15.005 136.726,61.397 231.042 C 115.255 340.536,265.088 347.766,327.674 243.892 C 390.331 139.898,309.543 7.989,187.595 15.172 M208.496 59.271 C 222.088 65.962,223.287 70.290,223.293 112.708 L 223.298 140.998 251.286 141.003 C 266.679 141.006,281.725 141.285,284.720 141.623 C 309.749 144.447,315.601 177.486,293.047 188.633 L 288.458 190.901 276.907 191.315 C 270.554 191.542,255.893 191.751,244.327 191.780 L 223.298 191.831 223.278 220.726 C 223.267 236.619,223.024 251.441,222.737 253.664 C 220.077 274.283,195.925 282.719,180.483 268.424 C 172.892 261.395,172.466 258.831,172.466 220.137 L 172.466 191.831 149.319 191.808 C 107.493 191.766,103.505 191.202,96.564 184.350 C 86.163 174.082,85.823 159.729,95.731 149.138 C 102.969 141.400,105.358 140.998,144.160 140.998 L 172.466 140.998 172.471 112.708 C 172.475 82.766,172.862 76.145,174.872 71.601 C 180.369 59.174,196.376 53.304,208.496 59.271 " stroke="none" fill="#fff" fill-rule="evenodd"></path></g></svg>