<svg id="svg" xmlns="http://www.w3.org/2000/svg" xmlns:xlink="http://www.w3.org/1999/xlink" width="400" height="434.62246777163904" viewBox="0, 0, 400,434.62246777163904"><g id="svgg"><path id="path0" d="M132.749 14.489 C 128.786 16.442,128.577 17.379,128.177 34.991 L 127.808 51.197 80.860 51.387 L 33.911 51.576 33.515 53.228 C 32.602 57.031,23.423 102.254,23.050 104.788 L 22.642 107.551 193.641 107.551 C 350.106 107.551,364.641 107.450,364.641 106.369 C 364.641 105.371,355.046 58.176,353.838 53.228 L 353.434 51.576 306.551 51.387 L 259.669 51.197 259.300 34.991 C 258.898 17.285,258.695 16.399,254.610 14.461 C 250.762 12.634,136.458 12.661,132.749 14.489 M241.989 40.884 L 241.989 51.197 193.738 51.197 L 145.488 51.197 145.281 41.660 C 145.167 36.414,145.240 31.688,145.444 31.157 C 145.745 30.372,154.800 30.227,193.902 30.381 L 241.989 30.571 241.989 40.884 M44.199 125.645 C 44.199 126.279,45.351 140.284,46.759 156.769 C 49.608 190.120,52.716 226.760,55.988 265.562 C 57.183 279.742,59.171 303.278,60.404 317.864 C 61.637 332.449,63.475 354.328,64.488 366.483 C 67.381 401.203,67.622 402.179,74.983 408.906 C 82.740 415.996,73.212 415.470,193.738 415.470 C 313.144 415.470,304.611 415.900,311.874 409.507 C 319.550 402.750,319.957 401.229,322.680 369.061 C 323.898 354.678,327.215 315.562,330.051 282.136 C 332.888 248.711,336.020 211.750,337.011 200.000 C 338.003 188.250,339.818 166.737,341.046 152.193 C 342.274 137.649,343.278 125.467,343.278 125.121 C 343.278 124.776,275.985 124.494,193.738 124.494 C 58.606 124.494,44.199 124.605,44.199 125.645 M136.071 167.649 C 139.409 169.597,142.325 172.953,143.603 176.314 C 144.893 179.705,144.686 352.180,143.388 355.275 C 137.980 368.182,120.448 369.574,113.095 357.681 L 110.866 354.075 110.672 266.382 L 110.479 178.689 112.386 174.793 C 116.678 166.020,127.625 162.718,136.071 167.649 M198.443 166.052 C 203.296 167.513,206.529 170.224,208.764 174.710 L 210.681 178.558 210.665 265.522 C 210.647 361.986,210.960 355.558,206.032 360.845 C 199.923 367.399,187.554 367.399,181.445 360.845 C 176.517 355.558,176.830 361.986,176.812 265.522 L 176.796 178.558 178.713 174.710 C 182.513 167.086,190.391 163.629,198.443 166.052 M267.148 166.954 C 270.223 168.413,273.604 171.670,275.344 174.848 C 276.523 177.002,276.611 183.333,276.611 265.562 L 276.611 353.959 274.601 357.379 C 267.433 369.572,249.564 368.342,244.090 355.279 C 242.787 352.170,242.572 179.738,243.866 176.333 C 247.363 167.137,258.273 162.742,267.148 166.954 " stroke="none" fill="#fff" fill-rule="evenodd"></path></g></svg>