<svg id="svg" version="1.1" xmlns="http://www.w3.org/2000/svg" xmlns:xlink="http://www.w3.org/1999/xlink" width="400" height="410.47120418848164" viewBox="0, 0, 400,410.47120418848164"><g id="svgg">
<path id="path0" d="M194.600 55.588 C 188.166 56.115,180.216 57.309,174.800 58.561 C 173.370 58.891,170.649 59.517,168.754 59.952 C 110.576 73.289,63.762 123.536,52.061 185.200 C 49.386 199.300,49.043 223.576,51.338 236.400 C 51.673 238.270,52.124 240.790,52.342 242.000 C 56.166 263.281,70.110 295.502,77.152 299.335 C 80.705 301.269,84.746 300.584,88.000 297.496 C 88.770 296.765,92.280 293.576,95.800 290.409 C 99.320 287.243,103.282 283.650,104.605 282.426 C 107.659 279.600,114.138 273.695,119.799 268.577 C 122.218 266.390,124.558 264.234,124.999 263.788 C 125.439 263.341,128.230 260.793,131.200 258.125 C 140.580 249.701,142.000 248.269,142.000 247.233 C 142.000 246.338,134.375 238.214,126.626 230.854 C 125.321 229.615,123.071 227.361,121.626 225.846 C 113.355 217.172,112.589 217.313,100.460 229.734 C 87.945 242.551,69.764 260.400,69.224 260.400 C 67.872 260.400,62.706 240.821,62.157 233.619 C 62.047 232.178,61.712 229.740,61.412 228.200 C 58.742 214.503,61.454 187.751,67.475 168.400 C 74.401 146.139,91.022 119.570,106.232 106.447 C 107.094 105.703,108.610 104.352,109.600 103.445 C 129.951 84.798,155.605 72.711,185.600 67.637 C 253.700 56.117,324.288 99.294,346.407 166.000 C 349.174 174.345,350.201 178.429,352.389 189.800 C 353.958 197.954,354.410 220.279,353.200 229.800 C 351.571 242.617,347.096 260.061,345.372 260.313 C 344.814 260.395,339.032 254.823,324.543 240.244 C 299.292 214.836,302.750 215.900,289.405 229.426 C 288.522 230.321,284.425 234.468,280.300 238.642 C 274.473 244.538,272.800 246.461,272.800 247.261 C 272.800 248.317,275.305 250.813,286.600 261.011 C 291.781 265.688,293.113 266.902,299.136 272.434 C 301.631 274.725,304.871 277.661,306.336 278.957 C 307.801 280.253,310.890 283.065,313.200 285.206 C 330.400 301.145,332.144 302.198,337.116 299.635 C 344.300 295.932,359.552 261.139,362.221 242.363 C 362.359 241.394,362.627 240.060,362.817 239.400 C 363.007 238.740,363.244 237.186,363.343 235.946 C 363.442 234.706,363.697 233.356,363.909 232.946 C 364.358 232.078,365.000 220.454,365.000 213.200 C 365.000 200.188,364.133 192.244,361.182 178.200 C 357.446 160.424,347.392 137.687,336.684 122.800 C 331.674 115.835,330.050 113.784,325.000 108.038 C 312.580 93.908,295.325 80.617,278.732 72.400 C 275.139 70.621,271.881 68.989,271.491 68.773 C 269.966 67.931,260.025 64.051,257.387 63.269 C 255.854 62.814,253.070 61.975,251.200 61.404 C 247.733 60.346,246.103 59.949,238.000 58.189 C 226.836 55.764,206.974 54.574,194.600 55.588 M203.760 121.760 C 202.057 123.463,201.886 125.885,203.300 128.277 L 204.200 129.800 204.400 161.200 L 204.600 192.600 207.305 192.718 C 209.244 192.803,210.066 192.690,210.203 192.318 C 210.309 192.033,210.442 177.760,210.498 160.600 L 210.600 129.400 211.500 127.953 C 214.713 122.787,208.058 117.462,203.760 121.760 M207.072 199.748 C 206.138 200.709,204.569 203.004,203.587 204.848 L 201.800 208.200 201.800 213.200 C 201.800 218.368,202.347 220.498,203.821 221.063 C 204.139 221.186,204.400 221.510,204.400 221.785 C 204.400 222.302,207.434 225.190,210.463 227.557 C 212.332 229.017,216.613 231.199,217.611 231.200 C 217.947 231.200,218.577 231.439,219.011 231.732 C 219.445 232.024,222.770 233.491,226.400 234.991 C 230.030 236.491,234.080 238.255,235.400 238.910 C 261.614 251.929,259.346 276.413,231.150 284.797 C 225.292 286.538,217.670 287.753,201.000 289.603 C 171.222 292.906,158.527 306.591,167.660 325.543 C 174.327 339.379,191.707 348.689,219.200 353.154 C 223.886 353.915,238.526 354.846,242.000 354.604 C 251.092 353.970,256.078 353.495,259.000 352.985 C 284.831 348.471,303.241 339.593,318.902 324.096 C 325.099 317.965,326.343 315.109,324.616 310.977 C 324.123 309.797,300.770 286.156,245.600 230.988 C 245.050 230.438,239.417 224.816,233.082 218.494 C 226.746 212.172,221.156 206.550,220.658 206.000 C 213.601 198.206,210.125 196.606,207.072 199.748 M200.600 200.123 C 200.160 200.623,198.987 201.589,197.994 202.270 C 197.001 202.952,195.471 204.326,194.594 205.323 C 193.717 206.321,191.560 208.568,189.800 210.316 C 184.045 216.032,180.261 219.820,176.492 223.641 C 174.452 225.709,171.572 228.575,170.092 230.011 C 142.974 256.316,90.404 310.022,89.774 312.065 C 88.587 315.915,91.201 320.698,97.300 325.839 C 98.058 326.478,100.587 328.736,102.922 330.858 C 113.686 340.642,130.687 351.703,142.600 356.675 C 143.920 357.226,145.540 357.921,146.200 358.220 C 156.104 362.707,172.210 367.169,184.904 368.941 C 187.278 369.272,186.154 368.514,178.298 364.484 C 161.227 355.727,150.874 346.365,144.845 334.233 C 141.127 326.752,140.252 323.244,140.247 315.800 L 140.243 309.800 141.866 305.600 C 149.718 285.287,165.450 278.163,206.800 276.198 C 230.032 275.094,239.698 270.211,239.704 259.577 C 239.708 251.797,234.632 246.959,217.200 238.129 C 200.982 229.915,194.719 222.317,195.764 212.124 C 195.952 210.281,196.409 208.827,197.293 207.249 C 197.986 206.012,198.904 204.280,199.333 203.400 C 199.763 202.520,200.560 201.215,201.104 200.500 C 202.225 199.030,201.825 198.731,200.600 200.123 " stroke="none" fill="white" fill-rule="evenodd">
</path>
<path id="path2" 
d="M204.319 55.098 C 206.144 55.172,209.024 55.172,210.719 55.097 C 212.414 55.022,210.920 54.961,207.400 54.962 C 203.880 54.962,202.494 55.024,204.319 55.098 M195.705 55.487 C 196.314 55.579,197.214 55.577,197.705 55.482 C 198.197 55.387,197.700 55.311,196.600 55.314 C 195.500 55.317,195.097 55.395,195.705 55.487 M216.900 55.487 C 217.505 55.578,218.495 55.578,219.100 55.487 C 219.705 55.395,219.210 55.320,218.000 55.320 C 216.790 55.320,216.295 55.395,216.900 55.487 M199.700 66.287 C 200.305 66.378,201.295 66.378,201.900 66.287 C 202.505 66.195,202.010 66.120,200.800 66.120 C 199.590 66.120,199.095 66.195,199.700 66.287 M212.707 66.290 C 213.426 66.379,214.506 66.377,215.107 66.286 C 215.708 66.195,215.120 66.122,213.800 66.124 C 212.480 66.126,211.988 66.201,212.707 66.290 M190.900 67.076 C 191.285 67.176,191.915 67.176,192.300 67.076 C 192.685 66.975,192.370 66.893,191.600 66.893 C 190.830 66.893,190.515 66.975,190.900 67.076 M296.800 82.946 C 296.800 83.056,297.340 83.530,298.000 84.000 C 298.660 84.470,299.200 84.764,299.200 84.654 C 299.200 84.544,298.660 84.070,298.000 83.600 C 297.340 83.130,296.800 82.836,296.800 82.946 M308.800 92.125 C 308.800 92.194,309.385 92.779,310.100 93.425 L 311.400 94.600 310.225 93.300 C 309.130 92.088,308.800 91.816,308.800 92.125 M102.975 94.500 L 101.800 95.800 103.100 94.625 C 104.312 93.530,104.584 93.200,104.275 93.200 C 104.206 93.200,103.621 93.785,102.975 94.500 M313.000 96.000 C 313.859 96.880,314.652 97.600,314.762 97.600 C 314.872 97.600,314.259 96.880,313.400 96.000 C 312.541 95.120,311.748 94.400,311.638 94.400 C 311.528 94.400,312.141 95.120,313.000 96.000 M99.381 97.700 L 97.800 99.400 99.500 97.819 C 100.435 96.949,101.200 96.184,101.200 96.119 C 101.200 95.816,100.852 96.119,99.381 97.700 M318.000 100.600 C 318.746 101.370,319.447 102.000,319.557 102.000 C 319.667 102.000,319.146 101.370,318.400 100.600 C 317.654 99.830,316.953 99.200,316.843 99.200 C 316.733 99.200,317.254 99.830,318.000 100.600 M109.375 103.700 L 108.200 105.000 109.500 103.825 C 110.215 103.179,110.800 102.594,110.800 102.525 C 110.800 102.216,110.470 102.488,109.375 103.700 M305.800 104.400 C 306.659 105.280,307.452 106.000,307.562 106.000 C 307.672 106.000,307.059 105.280,306.200 104.400 C 305.341 103.520,304.548 102.800,304.438 102.800 C 304.328 102.800,304.941 103.520,305.800 104.400 M91.785 105.300 L 89.800 107.400 91.900 105.415 C 93.851 103.571,94.183 103.200,93.885 103.200 C 93.822 103.200,92.877 104.145,91.785 105.300 M103.591 109.100 L 100.200 112.600 103.700 109.209 C 106.951 106.059,107.382 105.600,107.091 105.600 C 107.031 105.600,105.456 107.175,103.591 109.100 M308.800 106.925 C 308.800 106.994,309.385 107.579,310.100 108.225 L 311.400 109.400 310.225 108.100 C 309.130 106.888,308.800 106.616,308.800 106.925 M314.000 112.525 C 314.000 112.594,314.585 113.179,315.300 113.825 L 316.600 115.000 315.425 113.700 C 314.330 112.488,314.000 112.216,314.000 112.525 M97.781 115.300 L 96.200 117.000 97.900 115.419 C 99.481 113.948,99.784 113.600,99.481 113.600 C 99.416 113.600,98.651 114.365,97.781 115.300 M333.991 119.188 C 334.457 119.841,335.042 120.502,335.291 120.656 C 335.541 120.811,335.241 120.276,334.625 119.468 C 333.288 117.715,332.784 117.492,333.991 119.188 M206.505 120.287 C 207.114 120.379,208.014 120.377,208.505 120.282 C 208.997 120.187,208.500 120.111,207.400 120.114 C 206.300 120.117,205.897 120.195,206.505 120.287 M78.400 121.600 C 77.930 122.260,77.636 122.800,77.746 122.800 C 77.856 122.800,78.330 122.260,78.800 121.600 C 79.270 120.940,79.564 120.400,79.454 120.400 C 79.344 120.400,78.870 120.940,78.400 121.600 M203.570 121.500 L 202.600 122.600 203.800 121.600 C 204.460 121.050,205.075 120.555,205.167 120.500 C 205.258 120.445,205.155 120.400,204.936 120.400 C 204.718 120.400,204.103 120.895,203.570 121.500 M90.344 124.300 C 89.193 125.689,88.706 126.400,88.904 126.400 C 89.014 126.400,89.586 125.770,90.173 125.000 C 91.263 123.571,91.395 123.032,90.344 124.300 M202.101 125.400 C 202.105 126.280,202.187 126.593,202.283 126.095 C 202.379 125.598,202.375 124.878,202.275 124.495 C 202.175 124.113,202.096 124.520,202.101 125.400 M212.493 125.200 C 212.493 125.970,212.575 126.285,212.676 125.900 C 212.776 125.515,212.776 124.885,212.676 124.500 C 212.575 124.115,212.493 124.430,212.493 125.200 M211.379 128.112 C 210.626 129.358,210.600 130.386,210.591 159.400 C 210.586 175.900,210.633 183.690,210.696 176.712 L 210.811 164.023 229.195 163.912 C 251.237 163.778,248.980 164.517,249.785 157.169 C 250.390 151.637,251.075 142.537,251.400 135.707 C 251.721 128.953,253.902 129.600,230.800 129.600 C 210.236 129.600,210.167 129.593,212.073 127.687 C 212.334 127.426,212.459 127.126,212.352 127.019 C 212.245 126.912,211.807 127.404,211.379 128.112 M341.549 130.200 C 341.765 130.640,342.234 131.360,342.593 131.800 L 343.244 132.600 342.851 131.800 C 342.635 131.360,342.166 130.640,341.807 130.200 L 341.156 129.400 341.549 130.200 M204.094 161.076 C 204.042 178.278,204.135 192.436,204.300 192.538 C 204.572 192.706,204.569 170.195,204.293 141.000 C 204.235 134.840,204.145 143.874,204.094 161.076 M69.800 135.200 C 69.459 135.860,69.269 136.400,69.379 136.400 C 69.489 136.400,69.859 135.860,70.200 135.200 C 70.541 134.540,70.731 134.000,70.621 134.000 C 70.511 134.000,70.141 134.540,69.800 135.200 M256.374 137.031 C 256.012 137.468,255.756 139.959,255.542 145.131 C 254.956 159.303,253.878 164.490,251.100 166.500 C 248.887 168.101,248.074 168.394,242.271 169.688 C 238.442 170.541,241.511 170.788,256.020 170.794 C 274.422 170.802,273.448 171.570,268.400 161.025 C 264.454 152.781,264.301 154.170,270.014 146.371 C 277.395 136.296,277.445 136.400,265.205 136.400 C 258.128 136.400,256.820 136.493,256.374 137.031 M79.400 140.800 C 79.059 141.460,78.869 142.000,78.979 142.000 C 79.089 142.000,79.459 141.460,79.800 140.800 C 80.141 140.140,80.331 139.600,80.221 139.600 C 80.111 139.600,79.741 140.140,79.400 140.800 M350.056 179.600 C 350.056 179.930,350.211 180.560,350.400 181.000 C 350.617 181.504,350.744 181.578,350.744 181.200 C 350.744 180.870,350.589 180.240,350.400 179.800 C 350.183 179.296,350.056 179.222,350.056 179.600 M50.114 198.200 C 50.117 199.300,50.195 199.703,50.287 199.095 C 50.379 198.486,50.377 197.586,50.282 197.095 C 50.187 196.603,50.111 197.100,50.114 198.200 M214.607 200.232 C 215.930 201.535,218.090 203.612,219.407 204.848 C 220.723 206.085,222.160 207.534,222.600 208.069 C 223.040 208.604,223.175 208.748,222.900 208.389 C 222.625 208.031,222.400 207.546,222.400 207.313 C 222.400 206.915,220.579 205.198,214.676 200.032 L 212.200 197.865 214.607 200.232 M364.447 199.633 C 364.473 200.385,364.641 201.540,364.820 202.200 C 365.035 202.989,365.070 202.578,364.923 201.000 C 364.677 198.355,364.373 197.481,364.447 199.633 M199.459 200.517 C 195.770 203.714,192.400 206.928,192.400 207.249 C 192.400 207.426,191.635 208.322,190.700 209.241 L 189.000 210.911 190.800 209.384 C 191.790 208.545,192.758 207.575,192.952 207.229 C 193.603 206.066,196.185 203.536,198.000 202.284 C 198.990 201.602,200.010 200.763,200.267 200.422 C 201.237 199.133,201.195 200.372,200.220 201.809 C 199.659 202.635,199.200 203.470,199.200 203.664 C 199.200 203.857,198.737 204.749,198.171 205.646 C 197.605 206.542,197.226 207.359,197.328 207.462 C 197.545 207.678,200.000 203.493,200.000 202.906 C 200.000 202.688,200.540 201.831,201.200 201.000 C 203.383 198.253,202.389 197.978,199.459 200.517 M60.945 204.126 L 60.891 207.400 61.303 204.478 C 61.546 202.759,61.569 201.411,61.358 201.204 C 61.148 200.998,60.977 202.205,60.945 204.126 M49.744 205.200 C 49.744 207.290,49.812 208.145,49.894 207.100 C 49.976 206.055,49.976 204.345,49.894 203.300 C 49.812 202.255,49.744 203.110,49.744 205.200 M202.969 205.153 C 200.408 208.381,200.357 218.394,202.891 220.680 C 203.588 221.310,203.570 221.199,202.744 219.800 C 201.232 217.237,201.329 209.034,202.906 206.239 C 204.162 204.012,204.185 203.621,202.969 205.153 M364.793 206.519 L 364.985 208.600 365.118 206.846 C 365.191 205.881,365.105 204.944,364.926 204.765 C 364.747 204.585,364.687 205.375,364.793 206.519 M60.542 211.000 C 60.541 212.980,60.608 213.840,60.692 212.912 C 60.776 211.984,60.777 210.364,60.695 209.312 C 60.612 208.260,60.543 209.020,60.542 211.000 M353.751
 213.600 C 353.751 216.130,353.816 217.165,353.896 215.900 C 353.975 214.635,353.975 212.565,353.896 211.300 C 353.816 210.035,353.751 211.070,353.751 213.600 M224.008 209.629 C 224.013 209.723,227.298 213.034,231.308 216.987 C 237.770 223.356,238.577 223.929,232.975 218.169 C 230.301 215.420,223.998 209.417,224.008 209.629 M195.693 212.800 C 195.693 213.570,195.775 213.885,195.876 213.500 C 195.976 213.115,195.976 212.485,195.876 212.100 C 195.775 211.715,195.693 212.030,195.693 212.800 M187.149 212.703 C 185.521 213.783,181.522 217.625,180.195 219.385 C 179.538 220.256,180.621 219.356,182.601 217.385 C 184.582 215.413,186.742 213.397,187.401 212.905 C 188.822 211.845,188.650 211.707,187.149 212.703 M49.701 215.000 C 49.705 215.880,49.787 216.193,49.883 215.695 C 49.979 215.198,49.975 214.478,49.875 214.095 C 49.775 213.713,49.696 214.120,49.701 215.000 M60.937 217.800 C 60.939 219.560,61.009 220.230,61.093 219.289 C 61.178 218.349,61.177 216.909,61.091 216.089 C 61.005 215.270,60.936 216.040,60.937 217.800 M196.236 217.600 C 196.825 220.852,197.106 221.841,197.148 220.800 C 197.170 220.250,196.917 218.990,196.585 218.000 C 196.093 216.528,196.029 216.455,196.236 217.600 M364.924 220.200 C 364.926 221.520,365.001 222.012,365.090 221.293 C 365.179 220.574,365.177 219.494,365.086 218.893 C 364.995 218.292,364.922 218.880,364.924 220.200 M353.344 222.400 C 353.344 224.490,353.412 225.345,353.494 224.300 C 353.576 223.255,353.576 221.545,353.494 220.500 C 353.412 219.455,353.344 220.310,353.344 222.400 M109.544 220.430 C 109.025 220.887,108.826 221.146,109.101 221.006 C 111.393 219.841,111.737 219.605,111.144 219.602 C 110.784 219.601,110.064 219.974,109.544 220.430 M115.446 220.472 C 117.219 221.811,117.562 221.917,116.216 220.711 C 115.547 220.112,114.841 219.617,114.646 219.611 C 114.451 219.605,114.811 219.992,115.446 220.472 M298.175 220.900 L 297.000 222.200 298.200 221.150 C 298.860 220.572,299.670 220.002,300.000 219.881 C 300.517 219.693,300.513 219.659,299.975 219.632 C 299.631 219.614,298.821 220.185,298.175 220.900 M303.400 219.886 C 303.840 219.993,304.650 220.467,305.200 220.940 L 306.200 221.800 305.230 220.700 C 304.697 220.095,303.887 219.621,303.430 219.646 C 302.626 219.691,302.625 219.699,303.400 219.886 M49.720 222.000 C 49.720 223.210,49.795 223.705,49.887 223.100 C 49.978 222.495,49.978 221.505,49.887 220.900 C 49.795 220.295,49.720 220.790,49.720 222.000 M107.375 222.900 L 106.200 224.200 107.500 223.025 C 108.712 221.930,108.984 221.600,108.675 221.600 C 108.606 221.600,108.021 222.185,107.375 222.900 M311.867 227.415 C 314.984 230.487,320.003 235.520,323.021 238.600 L 328.509 244.200 323.154 238.462 C 316.427 231.253,310.653 225.466,308.141 223.415 C 307.074 222.543,308.750 224.343,311.867 227.415 M60.914 224.200 C 60.917 225.300,60.995 225.703,61.087 225.095 C 61.179 224.486,61.177 223.586,61.082 223.095 C 60.987 222.603,60.911 223.100,60.914 224.200 M205.983 224.100 C 206.964 225.145,207.819 226.000,207.883 226.000 C 208.184 226.000,207.866 225.641,206.100 223.983 L 204.200 222.200 205.983 224.100 M364.493 225.200 C 364.493 225.970,364.575 226.285,364.676 225.900 C 364.776 225.515,364.776 224.885,364.676 224.500 C 364.575 224.115,364.493 224.430,364.493 225.200 M240.383 226.100 C 241.364 227.145,242.219 228.000,242.283 228.000 C 242.584 228.000,242.266 227.641,240.500 225.983 L 238.600 224.200 240.383 226.100 M50.146 228.600 C 50.147 230.800,50.214 231.649,50.295 230.487 C 50.376 229.324,50.376 227.524,50.293 226.487 C 50.211 225.449,50.145 226.400,50.146 228.600 M104.000 225.878 C 103.209 226.162,98.968 230.274,97.894 231.800 C 97.429 232.460,98.477 231.560,100.224 229.800 C 101.971 228.040,103.760 226.386,104.200 226.124 C 105.052 225.616,104.979 225.527,104.000 225.878 M172.234 227.466 C 169.360 229.694,167.353 231.795,166.569 233.400 C 165.983 234.598,165.983 234.598,166.672 233.600 C 167.541 232.340,171.770 228.147,173.609 226.721 C 174.374 226.128,174.910 225.640,174.800 225.638 C 174.690 225.635,173.535 226.458,172.234 227.466 M202.389 228.311 C 203.605 229.581,205.230 231.031,206.000 231.533 L 207.400 232.444 206.229 231.522 C 205.584 231.015,204.073 229.565,202.870 228.300 C 201.667 227.035,200.569 226.000,200.430 226.000 C 200.292 226.000,201.173 227.040,202.389 228.311 M210.214 227.700 C 212.305 229.545,216.321 231.616,217.724 231.573 C 218.289 231.556,218.032 231.366,217.000 231.039 C 214.636 230.290,212.361 229.039,210.434 227.429 C 208.045 225.433,207.878 225.639,210.214 227.700 M289.928 228.435 L 287.800 230.470 290.100 228.559 C 291.365 227.508,292.400 226.592,292.400 226.524 C 292.400 226.169,291.864 226.583,289.928 228.435 M61.280 227.400 C 61.280 227.840,61.424 228.650,61.600 229.200 C 61.854 229.992,61.920 230.033,61.920 229.400 C 61.920 228.960,61.776 228.150,61.600 227.600 C 61.346 226.808,61.280 226.767,61.280 227.400 M244.877 230.245 C 246.129 231.540,248.274 233.770,249.644 235.200 L 252.135 237.800 249.968 235.305 C 244.956 229.535,244.187 228.715,243.413 228.312 C 242.966 228.080,243.624 228.949,244.877 230.245 M126.603 230.630 C 127.924 231.934,129.325 233.450,129.714 234.000 C 130.375 234.932,130.393 234.936,129.979 234.065 C 129.377 232.799,126.956 230.159,125.438 229.114 C 124.757 228.645,125.281 229.327,126.603 230.630 M62.122 232.700 C 62.150 234.229,62.296 234.972,62.496 234.614 C 62.676 234.293,62.655 233.168,62.449 232.115 L 62.075 230.200 62.122 232.700 M279.591 239.100 L 276.200 242.600 279.700 239.209 C 282.951 236.059,283.382 235.600,283.091 235.600 C 283.031 235.600,281.456 237.175,279.591 239.100 M159.789 240.100 L 157.000 243.000 159.900 240.211 C 162.594 237.620,162.983 237.200,162.689 237.200 C 162.628 237.200,161.323 238.505,159.789 240.100 M333.600 249.400 C 336.343 252.150,338.678 254.400,338.788 254.400 C 338.898 254.400,336.743 252.150,334.000 249.400 C 331.257 246.650,328.922 244.400,328.812 244.400 C 328.702 244.400,330.857 246.650,333.600 249.400 M149.200 250.600 C 147.561 252.250,146.310 253.600,146.420 253.600 C 146.530 253.600,147.961 252.250,149.600 250.600 C 151.239 248.950,152.490 247.600,152.380 247.600 C 152.270 247.600,150.839 248.950,149.200 250.600 M274.200 250.000 C 275.059 250.880,275.852 251.600,275.962 251.600 C 276.072 251.600,275.459 250.880,274.600 250.000 C 273.741 249.120,272.948 248.400,272.838 248.400 C 272.728 248.400,273.341 249.120,274.200 250.000 M136.585 253.300 L 134.600 255.400 136.700 253.415 C 137.855 252.323,138.800 251.378,138.800 251.315 C 138.800 251.017,138.429 251.349,136.585 253.300 M348.080 253.080 C 347.830 253.894,347.692 254.626,347.773 254.706 C 347.854 254.787,348.136 254.199,348.400 253.400 C 348.664 252.601,348.802 251.869,348.707 251.774 C 348.612 251.678,348.330 252.266,348.080 253.080 M278.600 254.000 C 279.459 254.880,280.252 255.600,280.362 255.600 C 280.472 255.600,279.859 254.880,279.000 254.000 C 278.141 253.120,277.348 252.400,277.238 252.400 C 277.128 252.400,277.741 253.120,278.600 254.000 M270.200 256.000 C 271.506 257.320,272.665 258.400,272.775 258.400 C 272.885 258.400,271.906 257.320,270.600 256.000 C 269.294 254.680,268.135 253.600,268.025 253.600 C 267.915 253.600,268.894 254.680,270.200 256.000 M342.400 258.200 C 343.595 259.410,344.663 260.400,344.773 260.400 C 344.883 260.400,343.995 259.410,342.800 258.200 C 341.605 256.990,340.537 256.000,340.427 256.000 C 340.317 256.000,341.205 256.990,342.400 258.200 M131.775 257.700 L 130.600 259.000 131.900 257.825 C 133.112 256.730,133.384 256.400,133.075 256.400 C 133.006 256.400,132.421 256.985,131.775 257.700 M282.800 257.725 C 282.800 257.794,283.385 258.379,284.100 259.025 L 285.400 260.200 284.225 258.900 C 283.130 257.688,282.800 257.416,282.800 257.725 M138.191 261.700 L 135.000 265.000 138.300 261.809 C 141.365 258.846,141.782 258.400,141.491 258.400 C 141.430 258.400,139.945 259.885,138.191 261.700 M128.175 260.900 L 127.000 262.200 128.300 261.025 C 129.512 259.930,129.784 259.600,129.475 259.600 C 129.406 259.600,128.821 260.185,128.175 260.900 M287.800 262.400 C 288.659 263.280,289.452 264.000,289.562 264.000 C 289.672 264.000,289.059 263.280,288.200 262.400 C 287.341 261.520,286.548 260.800,286.438 260.800 C 286.328 260.800,286.941 261.520,287.800 262.400 M293.000 267.200 C 293.859 268.080,294.652 268.800,294.762 268.800 C 294.872 268.800,294.259 268.080,293.400 267.200 C 292.541 266.320,291.748 265.600,291.638 265.600 C 291.528 265.600,292.141 266.320,293.000 267.200 M282.000 267.800 C 282.746 268.570,283.447 269.200,283.557 269.200 C 283.667 269.200,283.146 268.570,282.400 267.800 C 281.654 267.030,280.953 266.400,280.843 266.400 C 280.733 266.400,281.254 267.030,282.000 267.800 M118.175 270.100 L 117.000 271.400 118.300 270.225 C 119.512 269.130,119.784 268.800,119.475 268.800 C 119.406 268.800,118.821 269.385,118.175 270.100 M296.783 270.500 C 297.764 271.545,298.619 272.400,298.683 272.400 C 298.984 272.400,298.666 272.041,296.900 270.383 L 295.000 268.600 296.783 270.500 M60.828 271.800 C 60.828 272.020,61.086 272.650,61.400 273.200 C 61.714 273.750,61.972 274.020,61.972 273.800 C 61.972 273.580,61.714 272.950,61.400 272.400 C 61.086 271.850,60.828 271.580,60.828 271.800 M114.181 273.700 L 112.600 275.400 114.300 273.819 C 115.881 272.348,116.184 272.000,115.881 272.000 C 115.816 272.000,115.051 272.765,114.181 273.700 M126.181 273.700 L 124.600 275.400 126.300 273.819 C 127.881 272.348,128.184 272.000,127.881 272.000 C 127.816 272.000,127.051 272.765,126.181 273.700 M300.783 274.100 C 301.764 275.145,302.619 276.000,302.683 276.000 C 302.984 276.000,302.666 275.641,300.900 273.983 L 299.000 272.200 300.783 274.100 M246.786 276.300 L 244.600 278.600 246.900 276.414 C 249.037 274.382,249.383 274.000,249.086 274.000 C 249.024 274.000,247.989 275.035,246.786 276.300 M208.505 276.287 C 209.114 276.379,210.014 276.377,210.505 276.282 C 210.997 276.187,210.500 276.111,209.400 276.114 C 208.300 276.117,207.897 276.195,208.505 276.287 M199.505 276.683 C 200.002 276.779,200.722 276.775,201.105 276.675 C 201.487 276.575,201.080 276.496,200.200 276.501 C 199.320 276.505,199.007 276.587,199.505 276.683 M108.975 278.500 L 107.800 279.800 109.100 278.625 C 110.312 277.530,110.584 277.200,110.275 277.200 C 110.206 277.200,109.621 277.785,108.975 278.500 M105.178 281.900 L 103.800 283.400 105.300 282.022 C 106.696 280.738,106.984 280.400,106.678 280.400 C 106.612 280.400,105.937 281.075,105.178 281.900 M309.800 282.400 C 310.659 283.280,311.452 284.000,311.562 284.000 C 311.672 284.000,311.059 283.280,310.200 282.400 C 309.341 281.520,308.548 280.800,308.438 280.800 C 308.328 280.800,308.941 281.520,309.800 282.400 M115.381 284.500 L 113.800 286.200 115.500 284.619 C 117.081 283.148,117.384 282.800,117.081 282.800 C 117.016 282.800,116.251 283.565,115.381 284.500 M315.000 287.200 C 315.859 288.080,316.652 288.800,316.762 288.800 C 316.872 288.800,316.259 288.080,315.400 287.200 C 314.541 286.320,313.748 285.600,313.638 285.600 C 313.528 285.600,314.141 286.320,315.000 287.200 M96.175 290.100 L 95.000 291.400 96.300 290.225 C 97.512 289.130,97.784 288.800,97.475 288.800 C 97.406 288.800,96.821 289.385,96.175 290.100 M344.200 290.800 C 343.859 291.460,343.669 292.000,343.779 292.000 C 343.889 292.000,344.259 291.460,344.600 290.800 C 344.941 290.140,345.131 289.600,345.021 289.600 C 344.911 289.600,344.541 290.140,344.200 290.800 M318.400 290.125 C 318.400 290.194,318.985 290.779,319.700 291.425 L 321.000 292.600 319.825 291.300 C 318.730 290.088,318.400 289.816,318.400 290.125 M149.781 292.500 L 148.200 294.200 149.900 292.619 C 151.481 291.148,151.784 290.800,151.481 290.800 C 151.416 290.800,150.651 291.565,149.781 292.500 M71.000 292.400 C 71.341 293.060,71.711 293.600,71.821 293.600 C 71.931 293.600,71.741 293.060,71.400 292.400 C 71.059 291.740,70.689 291.200,70.579 291.200 C 70.469 291.200,70.659 291.740,71.000 292.400 M92.181 293.700 L 90.600 295.400 92.300 293.819 C 93.881 292.348,94.184 292.000,93.881 292.000 C 93.816 292.000,93.051 292.765,92.181 293.700 M323.400 294.800 C 324.259 295.680,325.052 296.400,325.162 296.400 C 325.272 296.400,324.659 295.680,323.800 294.800 C 322.941 293.920,322.148 293.200,322.038 293.200 C 321.928 293.200,322.541 293.920,323.400 294.800 M104.778 295.100 L 103.400 296.600 104.900 295.222 C 106.296 293.938,106.584 293.600,106.278 293.600 C 106.212 293.600,105.537 294.275,104.778 295.100 M146.679 296.100 C 145.594 297.568,144.862 298.832,145.463 298.200 C 146.205 297.420,148.038 294.800,147.841 294.800 C 147.731 294.800,147.208 295.385,146.679 296.100 M339.578 297.900 L 338.200 299.400 339.700 298.022 C 341.096 296.738,341.384 296.400,341.078 296.400 C 341.012 296.400,340.337 297.075,339.578 297.900 M101.375 298.500 L 100.200 299.800 101.500 298.625 C 102.712 297.530,102.984 297.200,102.675 297.200 C 102.606 297.200,102.021 297.785,101.375 298.500 M170.764 300.700 C 168.943 302.594,166.477 305.550,167.844 304.200 C 169.339 302.723,173.295 298.400,173.151 298.400 C 173.054 298.400,171.980 299.435,170.764 300.700 M316.400 302.200 C 317.595 303.410,318.663 304.400,318.773 304.400 C 318.883 304.400,317.995 303.410,316.800 302.200 C 315.605 300.990,314.537 300.000,314.427 300.000 C 314.317 300.000,315.205 300.990,316.400 302.200 M80.705 300.683 C 81.202 300.779,81.922 300.775,82.305 300.675 C 82.687 300.575,82.280 300.496,81.400 300.501 C 80.520 300.505,80.207 300.587,80.705 300.683 M332.705 300.683 C 333.202 300.779,333.922 300.775,334.305 300.675 C 334.687 300.575,334.280 300.496,333.400 300.501 C 332.520 300.505,332.207 300.587,332.705 300.683 M93.978 305.900 L 92.600 307.400 94.100 306.022 C 95.496 304.738,95.784 304.400,95.478 304.400 C 95.412 304.400,94.737 305.075,93.978 305.900 M140.629 309.029 C 140.481 309.615,140.438 310.172,140.532 310.266 C 140.627 310.360,140.824 309.958,140.971 309.371 C 141.119 308.785,141.162 308.228,141.068 308.134 C 140.973 308.040,140.776 308.442,140.629 309.029 M164.534 314.800 C 164.534 316.450,164.605 317.125,164.691 316.300 C 164.778 315.475,164.778 314.125,164.691 313.300 C 164.605 312.475,164.534 313.150,164.534 314.800 M140.142 315.800 C 140.141 317.780,140.208 318.640,140.292 317.712 C 140.376 316.784,140.377 315.164,140.295 314.112 C 140.212 313.060,140.143 313.820,140.142 315.800 M325.301 314.200 C 325.305 315.080,325.387 315.393,325.483 314.895 C 325.579 314.398,325.575 313.678,325.475 313.295 C 325.375 312.913,325.296 313.320,325.301 314.200 M90.800 319.325 C 90.800 319.394,91.385 319.979,92.100 320.625 L 93.400 321.800 92.225 320.500 C 91.130 319.288,90.800 319.016,90.800 319.325 M321.781 321.300 L 320.200 323.000 321.900 321.419 C 323.481 319.948,323.784 319.600,323.481 319.600 C 323.416 319.600,322.651 320.365,321.781 321.300 M315.600 327.400 C 314.628 328.390,313.923 329.200,314.033 329.200 C 314.143 329.200,315.028 328.390,316.000 327.400 C 316.972 326.410,317.677 325.600,317.567 325.600 C 317.457 325.600,316.572 326.410,315.600 327.400 M99.583 328.100 C 100.564 329.145,101.419 330.000,101.483 330.000 C 101.784 330.000,101.466 329.641,99.700 327.983 L 97.800 326.200 99.583 328.100 M102.800 330.925 C 102.800 330.994,103.385 331.579,104.100 332.225 L 105.400 333.400 104.225 332.100 C 103.130 330.888,102.800 330.616,102.800 330.925 M173.600 334.200 C 174.795 335.410,175.863 336.400,175.973 336.400 C 176.083 336.400,175.195 335.410,174.000 334.200 C 172.805 332.990,171.737 332.000,171.627 332.000 C 171.517 332.000,172.405 332.990,173.600 334.200 M306.081 334.972 C 304.223 336.285,303.962 336.661,305.531 335.762 C 306.263 335.343,307.050 334.775,307.280 334.500 C 307.871 333.793,307.593 333.902,306.081 334.972 M152.725 345.900 C 153.605 346.945,154.915 348.340,155.637 349.000 C 156.358 349.660,155.704 348.805,154.183 347.100 C 151.122 343.670,150.226 342.931,152.725 345.900 M228.100 354.276 C 228.485 354.376,229.115 354.376,229.500 354.276 C 229.885 354.175,229.570 354.093,228.800 354.093 C 228.030 354.093,227.715 354.175,228.100 354.276 M248.500 354.276 C 248.885 354.376,249.515 354.376,249.900 354.276 C 250.285 354.175,249.970 354.093,249.200 354.093 C 248.430 354.093,248.115 354.175,248.500 354.276 M232.300 354.689 C 233.015 354.778,234.185 354.778,234.900 354.689 C 235.615 354.601,235.030 354.528,233.600 354.528 C 232.170 354.528,231.585 354.601,232.300 354.689 M242.700 354.689 C 243.415 354.778,244.585 354.778,245.300 354.689 C 246.015 354.601,245.430 354.528,244.000 354.528 C 242.570 354.528,241.985 354.601,242.700 354.689 M185.461 368.215 C 185.624 368.639,185.371 368.812,184.543 368.843 C 183.606 368.878,183.705 368.954,185.095 369.265 C 187.499 369.804,188.484 369.179,186.628 368.294 C 185.468 367.741,185.274 367.728,185.461 368.215 " 
stroke="none" 
fill="#FAC921" fill-rule="evenodd">
</path></g></svg>