<svg id="svg" xmlns="http://www.w3.org/2000/svg" xmlns:xlink="http://www.w3.org/1999/xlink" width="400" height="355.55555555555554" viewBox="0, 0, 400,355.55555555555554"><g id="svgg"><path id="path0" d="M198.611 39.943 L 198.611 62.500 191.319 62.524 C 109.072 62.796,52.964 164.328,94.690 237.385 C 98.748 244.490,97.594 244.849,109.605 232.757 L 119.834 222.459 116.293 213.612 C 94.023 157.982,136.129 92.000,194.097 91.691 L 198.611 91.667 198.611 114.224 L 198.611 136.781 227.778 107.639 C 243.819 91.611,256.944 77.861,256.944 77.083 C 256.944 76.306,243.819 62.556,227.778 46.528 L 198.611 17.386 198.611 39.943 M287.599 128.373 L 277.350 138.690 280.331 145.620 C 304.080 200.824,261.748 269.444,203.944 269.444 L 198.611 269.444 198.611 247.574 L 198.611 225.703 169.101 255.212 L 139.592 284.722 169.101 314.232 L 198.611 343.742 198.611 321.176 L 198.611 298.611 206.597 298.601 C 286.807 298.504,340.981 204.353,304.690 128.125 C 298.856 115.871,300.034 115.854,287.599 128.373 " stroke="none" fill="#fff" fill-rule="evenodd"></path></g></svg>