<svg id="svg" xmlns="http://www.w3.org/2000/svg" xmlns:xlink="http://www.w3.org/1999/xlink" width="400" height="395.47511312217193" viewBox="0, 0, 400,395.47511312217193"><g id="svgg"><path id="path0" d="M303.167 6.872 C 300.114 8.194,259.729 47.493,259.729 49.142 C 259.729 49.570,279.931 70.100,304.623 94.764 L 349.518 139.607 369.876 119.351 C 402.764 86.626,403.758 91.914,355.656 43.695 C 315.443 3.383,313.834 2.254,303.167 6.872 M141.630 166.515 L 38.466 269.681 83.710 314.932 L 128.954 360.183 232.350 256.791 L 335.745 153.399 290.726 108.373 C 265.966 83.610,245.502 63.348,245.251 63.348 C 244.999 63.348,198.370 109.773,141.630 166.515 M25.339 284.288 C 25.339 285.388,23.906 294.463,22.153 304.456 C 20.401 314.449,17.517 330.973,15.745 341.176 C 13.973 351.380,11.334 366.448,9.882 374.662 C 6.633 393.023,6.642 392.114,9.729 391.519 C 11.097 391.254,20.566 389.585,30.769 387.809 C 40.973 386.032,55.023 383.567,61.991 382.329 C 68.959 381.092,83.779 378.463,94.924 376.488 C 106.069 374.513,115.402 372.682,115.664 372.420 C 116.203 371.881,29.373 284.565,26.923 283.183 C 25.623 282.449,25.339 282.647,25.339 284.288 " stroke="none" fill="#fff" fill-rule="evenodd"></path></g></svg>